<?xml version="1.0" encoding="UTF-8" standalone="no"?>
<svg
   xmlns:dc="http://purl.org/dc/elements/1.1/"
   xmlns:cc="http://creativecommons.org/ns#"
   xmlns:rdf="http://www.w3.org/1999/02/22-rdf-syntax-ns#"
   xmlns:svg="http://www.w3.org/2000/svg"
   xmlns="http://www.w3.org/2000/svg"
   id="logo"
   version="1.1"
   viewBox="0 0 81.614475 150.22721"
   height="150.2272mm"
   width="81.614479mm">
  <defs
     id="defs2" />
  <metadata
     id="metadata5">
    <rdf:RDF>
      <cc:Work
         rdf:about="">
        <dc:format>image/svg+xml</dc:format>
        <dc:type
           rdf:resource="http://purl.org/dc/dcmitype/StillImage" />
        <dc:title></dc:title>
      </cc:Work>
    </rdf:RDF>
  </metadata>
  <g
     id="layer1"
     transform="translate(-75.598554,-25.930642)">
    <path
       d="m 116.28627,55.292215 a 39.6875,39.6875 0 0 0 -0.48679,0.0031 39.6875,39.6875 0 0 0 -39.200706,39.684398 39.6875,39.6875 0 0 0 39.687496,39.687497 39.6875,39.6875 0 0 0 39.6875,-39.687497 39.6875,39.6875 0 0 0 -9.53637,-25.807209 34.263541,19.840764 0 0 0 9.77563,-13.877189 h -39.441 a 39.6875,39.6875 0 0 0 -0.48576,-0.0031 z m 0,19.843749 a 19.843751,19.843751 0 0 1 19.84375,19.84375 19.843751,19.843751 0 0 1 -19.84375,19.843746 19.843751,19.843751 0 0 1 -19.843747,-19.843746 19.843751,19.843751 0 0 1 19.843747,-19.84375 z"
       style="opacity:1;stroke-width:0.254407"
       id="path840" />
    <circle
       r="9.9490004"
       cy="36.879642"
       cx="146.0448"
       id="path1002"
       style="opacity:1;stroke-width:0.196684" />
    <path
       d="m 155.97355,137.13942 -79.374996,16.68581 v 20.33261 l 79.374996,-16.68581 z"
       style="opacity:1;stroke-width:0.207831"
       id="rect1033" />
  </g>
</svg>
